<?xml version="1.0" encoding="UTF-8"?>
<!DOCTYPE svg PUBLIC "-//W3C//DTD SVG 1.1//EN" "http://www.w3.org/Graphics/SVG/1.1/DTD/svg11.dtd">
<svg xmlns="http://www.w3.org/2000/svg" version="1.1" width="2219px" height="1039px" style="shape-rendering:geometricPrecision; text-rendering:geometricPrecision; image-rendering:optimizeQuality; fill-rule:evenodd; clip-rule:evenodd" xmlns:xlink="http://www.w3.org/1999/xlink">
<g><path style="opacity:1" fill="#f1eee8" d="M -0.5,-0.5 C 739.167,-0.5 1478.83,-0.5 2218.5,-0.5C 2218.5,345.833 2218.5,692.167 2218.5,1038.5C 1478.83,1038.5 739.167,1038.5 -0.5,1038.5C -0.5,692.167 -0.5,345.833 -0.5,-0.5 Z"/></g>
<g><path style="opacity:1" fill="#0d0b0b" d="M 18.5,22.5 C 745.667,22.1667 1472.67,22.5001 2199.5,23.5C 1472.83,23.5 746.167,23.5 19.5,23.5C 19.5,139.833 19.5,256.167 19.5,372.5C 19.1667,372.5 18.8333,372.5 18.5,372.5C 18.5,255.833 18.5,139.167 18.5,22.5 Z"/></g>
<g><path style="opacity:1" fill="#272726" d="M 2199.5,23.5 C 2199.5,140.167 2199.5,256.833 2199.5,373.5C 2193.17,373.5 2186.83,373.5 2180.5,373.5C 2180.5,261.167 2180.5,148.833 2180.5,36.5C 1801.65,35.6128 1422.65,34.6128 1043.5,33.5C 792.312,33.9945 541.146,33.9945 290,33.5C 206.153,33.353 122.32,33.853 38.5,35C 35.4557,35.3589 35.1224,36.0255 37.5,37C 36.1367,38.9449 35.3034,41.1116 35,43.5C 34.6667,42.5 34.3333,41.5 34,40.5C 33.6667,42.5 33.3333,44.5 33,46.5C 32.6667,45.5 32.3333,44.5 32,43.5C 31.8333,44.1667 31.6667,44.8333 31.5,45.5C 32.9588,48.6687 33.7922,52.002 34,55.5C 34.8333,154.168 34.6667,252.835 33.5,351.5C 32.6816,348.893 32.1816,346.226 32,343.5C 30.2886,349.694 31.7886,354.86 36.5,359C 35.8531,361.469 35.5198,364.302 35.5,367.5C 34.1667,367.5 32.8333,367.5 31.5,367.5C 31.5,369.167 31.5,370.833 31.5,372.5C 27.5,372.5 23.5,372.5 19.5,372.5C 19.5,256.167 19.5,139.833 19.5,23.5C 746.167,23.5 1472.83,23.5 2199.5,23.5 Z"/></g>
<g><path style="opacity:1" fill="#242521" d="M 2180.5,36.5 C 1466.33,36.1667 752.333,36.5001 38.5,37.5C 38.5,149.5 38.5,261.5 38.5,373.5C 31.6457,373.824 24.979,373.491 18.5,372.5C 18.8333,372.5 19.1667,372.5 19.5,372.5C 23.5,372.5 27.5,372.5 31.5,372.5C 31.5,370.833 31.5,369.167 31.5,367.5C 32.8333,367.5 34.1667,367.5 35.5,367.5C 35.5198,364.302 35.8531,361.469 36.5,359C 31.7886,354.86 30.2886,349.694 32,343.5C 32.1816,346.226 32.6816,348.893 33.5,351.5C 34.6667,252.835 34.8333,154.168 34,55.5C 33.7922,52.002 32.9588,48.6687 31.5,45.5C 31.6667,44.8333 31.8333,44.1667 32,43.5C 32.3333,44.5 32.6667,45.5 33,46.5C 33.3333,44.5 33.6667,42.5 34,40.5C 34.3333,41.5 34.6667,42.5 35,43.5C 35.3034,41.1116 36.1367,38.9449 37.5,37C 35.1224,36.0255 35.4557,35.3589 38.5,35C 122.32,33.853 206.153,33.353 290,33.5C 541.146,33.9945 792.312,33.9945 1043.5,33.5C 1422.65,34.6128 1801.65,35.6128 2180.5,36.5 Z"/></g>
<g><path style="opacity:1" fill="#858481" d="M 18.5,22.5 C 745.666,21.5001 1473,21.1667 2200.5,21.5C 2200.5,138.833 2200.5,256.167 2200.5,373.5C 2200.17,373.5 2199.83,373.5 2199.5,373.5C 2199.5,256.833 2199.5,140.167 2199.5,23.5C 1472.67,22.5001 745.667,22.1667 18.5,22.5 Z"/></g>
<g><path style="opacity:1" fill="#f6f6f2" d="M 2200.5,21.5 C 2201.99,27.266 2202.82,33.266 2203,39.5C 2203.17,83.5 2203.33,127.5 2203.5,171.5C 2203.02,234.916 2203.02,298.249 2203.5,361.5C 2201.22,364.953 2200.89,368.619 2202.5,372.5C 2201.96,374.145 2201.3,374.478 2200.5,373.5C 2200.5,256.167 2200.5,138.833 2200.5,21.5 Z"/></g>
<g><path style="opacity:1" fill="#95948f" d="M 38.5,37.5 C 752.333,36.5001 1466.33,36.1667 2180.5,36.5C 2180.5,148.833 2180.5,261.167 2180.5,373.5C 2179.5,261.668 2179.17,149.668 2179.5,37.5C 1465.83,37.5 752.167,37.5 38.5,37.5 Z"/></g>
<g><path style="opacity:1" fill="#000000" d="M 1657.5,274.5 C 1657.33,349.167 1657.5,423.834 1658,498.5C 1658.79,497.255 1659.29,495.922 1659.5,494.5C 1674.72,445.735 1707.72,419.068 1758.5,414.5C 1787.33,413.438 1812.33,422.438 1833.5,441.5C 1833.56,442.043 1833.89,442.376 1834.5,442.5C 1835.5,435.866 1835.83,429.2 1835.5,422.5C 1860.17,422.5 1884.83,422.5 1909.5,422.5C 1909.5,495.167 1909.5,567.833 1909.5,640.5C 1884.83,640.5 1860.17,640.5 1835.5,640.5C 1835.67,632.16 1835.5,623.827 1835,615.5C 1812.37,639.464 1784.54,649.63 1751.5,646C 1714.61,641.443 1687.11,622.943 1669,590.5C 1664.99,582.815 1661.82,574.815 1659.5,566.5C 1659.11,564.821 1658.61,563.154 1658,561.5C 1657.5,587.831 1657.33,614.165 1657.5,640.5C 1633.01,641.498 1608.34,641.831 1583.5,641.5C 1583.67,632.827 1583.5,624.16 1583,615.5C 1559.42,640.14 1530.59,650.307 1496.5,646C 1452.82,638.832 1423.82,614.332 1409.5,572.5C 1408.91,571.234 1408.41,569.901 1408,568.5C 1407.5,592.498 1407.33,616.498 1407.5,640.5C 1382.83,640.5 1358.17,640.5 1333.5,640.5C 1333.67,632.16 1333.5,623.827 1333,615.5C 1310.88,638.658 1283.71,648.825 1251.5,646C 1214.68,642.173 1186.84,624.34 1168,592.5C 1164.67,585.98 1161.83,579.313 1159.5,572.5C 1159.11,570.821 1158.61,569.154 1158,567.5C 1157.5,591.831 1157.33,616.164 1157.5,640.5C 1132.5,640.5 1107.5,640.5 1082.5,640.5C 1082.97,594.461 1082.47,548.461 1081,502.5C 1074.97,484.652 1062.47,475.985 1043.5,476.5C 1028.03,476.811 1017.53,484.145 1012,498.5C 1010.52,545.795 1010.02,593.128 1010.5,640.5C 985.167,640.5 959.833,640.5 934.5,640.5C 934.975,594.794 934.475,549.128 933,503.5C 927.928,485.705 916.094,476.705 897.5,476.5C 876.845,476.652 865.011,486.985 862,507.5C 861.5,551.832 861.333,596.165 861.5,640.5C 836.5,640.5 811.5,640.5 786.5,640.5C 786.667,614.831 786.5,589.165 786,563.5C 771.804,603.36 744.304,629.193 703.5,641C 667.518,649.628 632.185,647.628 597.5,635C 575.399,624.902 557.565,609.736 544,589.5C 539.995,582.494 536.829,575.161 534.5,567.5C 534.291,566.078 533.791,564.745 533,563.5C 532.5,589.165 532.333,614.831 532.5,640.5C 505.831,640.667 479.165,640.5 452.5,640C 406.365,568.223 360.365,496.39 314.5,424.5C 314.44,423.957 314.107,423.624 313.5,423.5C 312.5,495.83 312.167,568.164 312.5,640.5C 285.833,640.5 259.167,640.5 232.5,640.5C 232.5,523.5 232.5,406.5 232.5,289.5C 259.508,289.167 286.508,289.5 313.5,290.5C 359.864,362.366 406.031,434.366 452,506.5C 452.5,434.167 452.667,361.834 452.5,289.5C 479.167,289.5 505.833,289.5 532.5,289.5C 532.333,358.501 532.5,427.501 533,496.5C 533.717,495.956 534.217,495.289 534.5,494.5C 540.881,475.269 551.881,459.102 567.5,446C 601.684,419.734 640.35,409.734 683.5,416C 728.526,422.738 761.36,446.238 782,486.5C 783.136,490.243 784.47,493.91 786,497.5C 786.5,472.169 786.667,446.836 786.5,421.5C 811.5,421.5 836.5,421.5 861.5,421.5C 861.169,429.528 861.502,437.528 862.5,445.5C 898.221,410.636 937.554,406.136 980.5,432C 989.112,438.442 996.112,446.275 1001.5,455.5C 1035.84,413.386 1077.17,404.886 1125.5,430C 1147.19,444.531 1158.02,465.031 1158,491.5C 1179.49,434.332 1220.65,409.166 1281.5,416C 1300.89,419.527 1317.56,428.027 1331.5,441.5C 1331.56,442.043 1331.89,442.376 1332.5,442.5C 1333.5,435.866 1333.83,429.2 1333.5,422.5C 1358.17,422.5 1382.83,422.5 1407.5,422.5C 1407.33,446.169 1407.5,469.836 1408,493.5C 1408.51,492.473 1409.01,491.473 1409.5,490.5C 1422.6,451.902 1448.93,427.735 1488.5,418C 1516.98,412.973 1543.65,417.64 1568.5,432C 1573.59,435.083 1578.09,438.917 1582,443.5C 1582.5,387.168 1582.67,330.834 1582.5,274.5C 1607.5,274.5 1632.5,274.5 1657.5,274.5 Z"/></g>
<g><path style="opacity:1" fill="#babab8" d="M 1657.5,274.5 C 1658.17,347.833 1658.83,421.167 1659.5,494.5C 1659.29,495.922 1658.79,497.255 1658,498.5C 1657.5,423.834 1657.33,349.167 1657.5,274.5 Z"/></g>
<g><path style="opacity:1" fill="#020202" d="M 703.5,281.5 C 716.636,297.479 729.636,313.645 742.5,330C 710.998,348.919 679.331,367.585 647.5,386C 645.35,387.59 643.017,388.257 640.5,388C 632.833,377.667 625.167,367.333 617.5,357C 646.064,331.596 674.73,306.429 703.5,281.5 Z"/></g>
<g><path style="opacity:1" fill="#3d3d3b" d="M 532.5,289.5 C 533.167,357.833 533.833,426.167 534.5,494.5C 534.217,495.289 533.717,495.956 533,496.5C 532.5,427.501 532.333,358.501 532.5,289.5 Z"/></g>
<g><path style="opacity:1" fill="#f6f5f2" d="M 232.5,289.5 C 232.5,406.5 232.5,523.5 232.5,640.5C 259.167,640.5 285.833,640.5 312.5,640.5C 313.499,569.669 313.833,498.669 313.5,427.5C 314.339,428.641 315.006,429.974 315.5,431.5C 314.847,502.368 314.18,573.368 313.5,644.5C 289.974,643.78 266.474,643.447 243,643.5C 241.5,643.667 240,643.833 238.5,644C 239.696,644.654 239.696,645.154 238.5,645.5C 235.712,644.022 232.878,642.689 230,641.5C 229.233,523.497 229.4,405.497 230.5,287.5C 236.223,287.136 241.89,286.303 247.5,285C 260.829,284.5 274.163,284.333 287.5,284.5C 287.5,285.5 287.5,286.5 287.5,287.5C 295.507,287.334 303.507,287.5 311.5,288C 284.997,288.168 258.663,288.668 232.5,289.5 Z"/></g>
<g><path style="opacity:1" fill="#0a0a09" d="M 1933.5,370.5 C 1950.97,371.138 1957.47,379.805 1953,396.5C 1951.92,398.996 1950.59,401.33 1949,403.5C 1943.17,410 1937.33,416.5 1931.5,423C 1939.5,423.333 1947.5,423.667 1955.5,424C 1956.93,426.267 1956.6,428.267 1954.5,430C 1943.17,430.667 1931.83,430.667 1920.5,430C 1919.42,429.326 1918.75,428.326 1918.5,427C 1919.54,424.277 1921.04,421.777 1923,419.5C 1930.03,412.803 1936.7,405.803 1943,398.5C 1950.21,385.056 1946.37,378.556 1931.5,379C 1928.28,381.726 1924.95,384.226 1921.5,386.5C 1918.51,386.02 1917.34,384.353 1918,381.5C 1921.78,375.708 1926.95,372.042 1933.5,370.5 Z"/></g>
<g><path style="opacity:1" fill="#0a0a09" d="M 1987.5,370.5 C 2003.58,369.744 2012.41,377.411 2014,393.5C 2015.18,402.904 2013.85,411.904 2010,420.5C 2003.65,429.447 1995.15,432.28 1984.5,429C 1978.09,425.694 1973.92,420.528 1972,413.5C 1969.31,402.119 1970.31,391.119 1975,380.5C 1978.19,375.837 1982.36,372.503 1987.5,370.5 Z"/></g>
<g><path style="opacity:1" fill="#090908" d="M 2043.5,370.5 C 2056.04,369.921 2063.37,375.754 2065.5,388C 2064.5,393.675 2062.33,398.842 2059,403.5C 2053.17,410 2047.33,416.5 2041.5,423C 2049.5,423.333 2057.5,423.667 2065.5,424C 2066.93,426.267 2066.6,428.267 2064.5,430C 2053.17,430.667 2041.83,430.667 2030.5,430C 2029.42,429.326 2028.75,428.326 2028.5,427C 2029.54,424.277 2031.04,421.777 2033,419.5C 2040.03,412.803 2046.7,405.803 2053,398.5C 2060.21,385.056 2056.37,378.556 2041.5,379C 2038.28,381.726 2034.95,384.226 2031.5,386.5C 2028.51,386.02 2027.34,384.353 2028,381.5C 2031.8,375.703 2036.97,372.036 2043.5,370.5 Z"/></g>
<g><path style="opacity:1" fill="#070707" d="M 2122.5,413.5 C 2120.17,413.5 2117.83,413.5 2115.5,413.5C 2115.5,418.167 2115.5,422.833 2115.5,427.5C 2113.53,431.092 2111.03,431.426 2108,428.5C 2107.5,423.511 2107.33,418.511 2107.5,413.5C 2098.83,413.666 2090.16,413.5 2081.5,413C 2080.06,409.872 2080.56,407.038 2083,404.5C 2091.88,393.954 2100.38,383.12 2108.5,372C 2110.42,370.405 2112.42,370.238 2114.5,371.5C 2115.5,383.148 2115.83,394.814 2115.5,406.5C 2117.86,406.337 2120.19,406.503 2122.5,407C 2125.04,409.201 2125.04,411.368 2122.5,413.5 Z"/></g>
<g><path style="opacity:1" fill="#efeeeb" d="M 2106.5,385.5 C 2107.49,392.313 2107.82,399.313 2107.5,406.5C 2102.16,406.666 2096.82,406.499 2091.5,406C 2096.88,399.403 2101.88,392.57 2106.5,385.5 Z"/></g>
<g><path style="opacity:1" fill="#f0eee7" d="M 1991.5,377.5 C 1998.74,378.905 2003.24,383.238 2005,390.5C 2005.67,397.167 2005.67,403.833 2005,410.5C 2000.74,423.5 1993.41,425.834 1983,417.5C 1979.63,408.816 1978.63,399.816 1980,390.5C 1981.65,384.025 1985.49,379.691 1991.5,377.5 Z"/></g>
<g><path style="opacity:1" fill="#9d9c99" d="M 2122.5,413.5 C 2120.74,414.461 2118.74,414.795 2116.5,414.5C 2116.82,419.032 2116.48,423.366 2115.5,427.5C 2115.5,422.833 2115.5,418.167 2115.5,413.5C 2117.83,413.5 2120.17,413.5 2122.5,413.5 Z"/></g>
<g><path style="opacity:1" fill="#434341" d="M 1407.5,421.5 C 1407.5,421.833 1407.5,422.167 1407.5,422.5C 1382.83,422.5 1358.17,422.5 1333.5,422.5C 1333.83,429.2 1333.5,435.866 1332.5,442.5C 1331.89,442.376 1331.56,442.043 1331.5,441.5C 1332.49,435.021 1332.82,428.354 1332.5,421.5C 1357.5,421.5 1382.5,421.5 1407.5,421.5 Z"/></g>
<g><path style="opacity:1" fill="#555554" d="M 1909.5,640.5 C 1909.5,567.833 1909.5,495.167 1909.5,422.5C 1884.83,422.5 1860.17,422.5 1835.5,422.5C 1835.83,429.2 1835.5,435.866 1834.5,442.5C 1833.89,442.376 1833.56,442.043 1833.5,441.5C 1834.49,435.021 1834.82,428.354 1834.5,421.5C 1859.83,421.5 1885.17,421.5 1910.5,421.5C 1910.83,494.669 1910.5,567.669 1909.5,640.5 Z"/></g>
<g><path style="opacity:1" fill="#3b3b39" d="M 314.5,424.5 C 313.596,425.209 313.263,426.209 313.5,427.5C 313.833,498.669 313.499,569.669 312.5,640.5C 312.167,568.164 312.5,495.83 313.5,423.5C 314.107,423.624 314.44,423.957 314.5,424.5 Z"/></g>
<g><path style="opacity:1" fill="#646362" d="M 1407.5,421.5 C 1408.17,444.5 1408.83,467.5 1409.5,490.5C 1409.01,491.473 1408.51,492.473 1408,493.5C 1407.5,469.836 1407.33,446.169 1407.5,422.5C 1407.5,422.167 1407.5,421.833 1407.5,421.5 Z"/></g>
<g><path style="opacity:1" fill="#f1eee8" d="M 1773.5,479.5 C 1804.19,475.41 1824.69,487.744 1835,516.5C 1839.79,538.465 1833.95,556.965 1817.5,572C 1803.87,581.147 1788.87,584.147 1772.5,581C 1753.03,576.193 1740.86,564.027 1736,544.5C 1730.52,512.105 1743.02,490.439 1773.5,479.5 Z"/></g>
<g><path style="opacity:1" fill="#f1eee7" d="M 647.5,479.5 C 678.163,475.399 698.663,487.733 709,516.5C 713.821,539.034 707.655,557.868 690.5,573C 676.95,581.177 662.283,583.844 646.5,581C 627.027,576.193 614.86,564.027 610,544.5C 604.497,512.146 616.997,490.48 647.5,479.5 Z"/></g>
<g><path style="opacity:1" fill="#f1eee8" d="M 1271.5,479.5 C 1302.16,475.399 1322.66,487.733 1333,516.5C 1338.07,540.647 1330.9,560.147 1311.5,575C 1298.54,581.263 1284.88,583.263 1270.5,581C 1250.55,576.054 1238.39,563.554 1234,543.5C 1228.81,511.525 1241.31,490.192 1271.5,479.5 Z"/></g>
<g><path style="opacity:1" fill="#f1eee8" d="M 1524.5,480.5 C 1553.87,478.251 1573.37,490.918 1583,518.5C 1587.54,543.556 1579.38,563.056 1558.5,577C 1540.15,584.858 1522.15,584.191 1504.5,575C 1486.84,561.941 1479.68,544.441 1483,522.5C 1488.35,499.986 1502.18,485.986 1524.5,480.5 Z"/></g>
<g><path style="opacity:1" fill="#666664" d="M 1409.5,572.5 C 1408.83,595.167 1408.17,617.833 1407.5,640.5C 1407.33,616.498 1407.5,592.498 1408,568.5C 1408.41,569.901 1408.91,571.234 1409.5,572.5 Z"/></g>
<g><path style="opacity:1" fill="#b9b8b6" d="M 1659.5,566.5 C 1658.83,591.167 1658.17,615.833 1657.5,640.5C 1657.33,614.165 1657.5,587.831 1658,561.5C 1658.61,563.154 1659.11,564.821 1659.5,566.5 Z"/></g>
<g><path style="opacity:1" fill="#3f3f3c" d="M 534.5,567.5 C 533.833,591.833 533.167,616.167 532.5,640.5C 532.333,614.831 532.5,589.165 533,563.5C 533.791,564.745 534.291,566.078 534.5,567.5 Z"/></g>
<g><path style="opacity:1" fill="#60605f" d="M 1159.5,572.5 C 1158.83,595.167 1158.17,617.833 1157.5,640.5C 1157.33,616.164 1157.5,591.831 1158,567.5C 1158.61,569.154 1159.11,570.821 1159.5,572.5 Z"/></g>
<g><path style="opacity:1" fill="#272727" d="M 20.5,665.5 C 20.5,665.167 20.5,664.833 20.5,664.5C 26.5,664.5 32.5,664.5 38.5,664.5C 38.5,776.5 38.5,888.5 38.5,1000.5C 752.333,1001.5 1466.33,1001.83 2180.5,1001.5C 2180.5,889.167 2180.5,776.833 2180.5,664.5C 2186.83,664.5 2193.17,664.5 2199.5,664.5C 2199.5,781.167 2199.5,897.833 2199.5,1014.5C 1476.13,1014.5 752.792,1014.5 29.5,1014.5C 26.8546,1013.89 24.1879,1013.39 21.5,1013C 22.5,1012.67 23.5,1012.33 24.5,1012C 23.6198,1010.64 23.2865,1009.14 23.5,1007.5C 22.5,1007.5 21.5,1007.5 20.5,1007.5C 20.505,894.322 20.505,781.322 20.5,668.5C 20.9767,667.522 21.6433,666.689 22.5,666C 21.9056,665.536 21.2389,665.369 20.5,665.5 Z"/></g>
<g><path style="opacity:1" fill="#070602" d="M 20.5,664.5 C 20.5,664.833 20.5,665.167 20.5,665.5C 19.5005,781.999 19.1671,898.665 19.5,1015.5C 19.1667,1015.5 18.8333,1015.5 18.5,1015.5C 17.8353,898.162 18.5019,781.162 20.5,664.5 Z"/></g>
<g><path style="opacity:1" fill="#0c0b0a" d="M 748.5,700.5 C 750.371,700.859 751.871,701.859 753,703.5C 754.735,708.206 756.569,712.873 758.5,717.5C 768.144,718.498 777.81,718.832 787.5,718.5C 789.026,713.09 790.859,707.756 793,702.5C 793.837,700.993 795.004,700.493 796.5,701C 797.576,702.726 797.743,704.559 797,706.5C 789.942,723.007 783.275,739.674 777,756.5C 776.218,759.076 774.718,761.076 772.5,762.5C 771.522,762.023 770.689,761.357 770,760.5C 762.862,742.087 755.529,723.754 748,705.5C 747.36,703.735 747.527,702.068 748.5,700.5 Z"/></g>
<g><path style="opacity:1" fill="#0a0a09" d="M 880.5,700.5 C 890.595,699.874 900.428,700.541 910,702.5C 910.821,722.21 910.654,741.877 909.5,761.5C 873.511,769.661 857.678,755.661 862,719.5C 865.052,709.949 871.219,703.616 880.5,700.5 Z"/></g>
<g><path style="opacity:1" fill="#0b0a0a" d="M 978.5,700.5 C 979.822,700.33 980.989,700.663 982,701.5C 984.264,706.793 986.431,712.127 988.5,717.5C 998.144,718.498 1007.81,718.832 1017.5,718.5C 1019.04,713.083 1020.87,707.749 1023,702.5C 1023.84,700.993 1025,700.493 1026.5,701C 1027.58,702.726 1027.74,704.559 1027,706.5C 1019.6,724.874 1012.1,743.207 1004.5,761.5C 1003.64,762.583 1002.64,762.749 1001.5,762C 993.289,743.38 985.456,724.546 978,705.5C 977.36,703.735 977.527,702.068 978.5,700.5 Z"/></g>
<g><path style="opacity:1" fill="#080807" d="M 1098.5,702.5 C 1098.17,718.514 1098.5,734.514 1099.5,750.5C 1100.11,750.376 1100.44,750.043 1100.5,749.5C 1106.57,740.363 1112.41,731.03 1118,721.5C 1120,718.833 1122,718.833 1124,721.5C 1130.33,731.5 1136.67,741.5 1143,751.5C 1143.33,734.833 1143.67,718.167 1144,701.5C 1145.71,700.075 1147.05,700.408 1148,702.5C 1148.67,721.833 1148.67,741.167 1148,760.5C 1145.81,763.017 1143.81,762.684 1142,759.5C 1135.56,748.279 1128.4,737.612 1120.5,727.5C 1113.14,738.365 1105.97,749.365 1099,760.5C 1097.6,762.527 1095.94,762.86 1094,761.5C 1093.33,741.5 1093.33,721.5 1094,701.5C 1095.92,700.084 1097.42,700.418 1098.5,702.5 Z"/></g>
<g><path style="opacity:1" fill="#0e0e0d" d="M 1240.5,700.5 C 1260.63,700.126 1271.96,709.959 1274.5,730C 1274.03,749.462 1264.2,760.295 1245,762.5C 1225,759.492 1215.67,747.825 1217,727.5C 1219.05,713.297 1226.88,704.297 1240.5,700.5 Z"/></g>
<g><path style="opacity:1" fill="#0d0d0c" d="M 1350.5,712.5 C 1350.22,711.711 1349.72,711.044 1349,710.5C 1348.5,727.163 1348.33,743.83 1348.5,760.5C 1347.42,762.582 1345.92,762.916 1344,761.5C 1343.33,741.833 1343.33,722.167 1344,702.5C 1345.4,700.473 1347.06,700.14 1349,701.5C 1361,718.167 1373,734.833 1385,751.5C 1385.33,734.833 1385.67,718.167 1386,701.5C 1387.33,700.167 1388.67,700.167 1390,701.5C 1390.67,721.5 1390.67,741.5 1390,761.5C 1388.06,762.86 1386.4,762.527 1385,760.5C 1373.67,744.342 1362.17,728.342 1350.5,712.5 Z"/></g>
<g><path style="opacity:1" fill="#eeece6" d="M 880.5,705.5 C 888.833,705.5 897.167,705.5 905.5,705.5C 905.5,722.833 905.5,740.167 905.5,757.5C 874.444,763.026 861.944,750.36 868,719.5C 869.926,712.745 874.093,708.078 880.5,705.5 Z"/></g>
<g><path style="opacity:1" fill="#f0eee8" d="M 1239.5,705.5 C 1261.05,705.224 1270.55,715.891 1268,737.5C 1263.14,755.238 1251.98,761.072 1234.5,755C 1226,749.326 1222,741.326 1222.5,731C 1222.84,718.797 1228.5,710.297 1239.5,705.5 Z"/></g>
<g><path style="opacity:1" fill="#edece8" d="M 761.5,723.5 C 769.196,723.169 776.862,723.503 784.5,724.5C 780.943,733.947 777.11,743.281 773,752.5C 768.676,743.03 764.843,733.363 761.5,723.5 Z"/></g>
<g><path style="opacity:1" fill="#edece6" d="M 991.5,723.5 C 999.196,723.169 1006.86,723.503 1014.5,724.5C 1010.94,733.947 1007.11,743.281 1003,752.5C 998.612,743.056 994.778,733.389 991.5,723.5 Z"/></g>
<g><path style="opacity:1" fill="#706f6f" d="M 1098.5,702.5 C 1099.17,718.167 1099.83,733.833 1100.5,749.5C 1100.44,750.043 1100.11,750.376 1099.5,750.5C 1098.5,734.514 1098.17,718.514 1098.5,702.5 Z"/></g>
<g><path style="opacity:1" fill="#918f8c" d="M 1350.5,712.5 C 1349.83,728.5 1349.17,744.5 1348.5,760.5C 1348.33,743.83 1348.5,727.163 1349,710.5C 1349.72,711.044 1350.22,711.711 1350.5,712.5 Z"/></g>
<g><path style="opacity:1" fill="#100f0e" d="M 1242.5,764.5 C 1243.98,764.238 1245.31,764.571 1246.5,765.5C 1243.5,770.492 1239.17,773.159 1233.5,773.5C 1233.34,772.127 1233.51,770.793 1234,769.5C 1236.98,767.933 1239.81,766.266 1242.5,764.5 Z"/></g>
<g><path style="opacity:1" fill="#fefdf9" d="M 38.5,664.5 C 39.4995,775.999 39.8328,887.665 39.5,999.5C 753.04,1000.17 1466.37,999.499 2179.5,997.5C 2179.5,998.5 2179.5,999.5 2179.5,1000.5C 1465.83,1000.5 752.167,1000.5 38.5,1000.5C 38.5,888.5 38.5,776.5 38.5,664.5 Z"/></g>
<g><path style="opacity:1" fill="#898784" d="M 2180.5,664.5 C 2180.5,776.833 2180.5,889.167 2180.5,1001.5C 1466.33,1001.83 752.333,1001.5 38.5,1000.5C 752.167,1000.5 1465.83,1000.5 2179.5,1000.5C 2179.5,999.5 2179.5,998.5 2179.5,997.5C 2179.17,886.332 2179.5,775.332 2180.5,664.5 Z"/></g>
<g><path style="opacity:1" fill="#21201d" d="M 20.5,665.5 C 21.2389,665.369 21.9056,665.536 22.5,666C 21.6433,666.689 20.9767,667.522 20.5,668.5C 20.505,781.322 20.505,894.322 20.5,1007.5C 21.5,1007.5 22.5,1007.5 23.5,1007.5C 23.2865,1009.14 23.6198,1010.64 24.5,1012C 23.5,1012.33 22.5,1012.67 21.5,1013C 24.1879,1013.39 26.8546,1013.89 29.5,1014.5C 752.792,1014.5 1476.13,1014.5 2199.5,1014.5C 1473,1015.5 746.334,1015.83 19.5,1015.5C 19.1671,898.665 19.5005,781.999 20.5,665.5 Z"/></g>
<g><path style="opacity:1" fill="#8e8e8a" d="M 2199.5,664.5 C 2200.5,781.665 2200.83,898.999 2200.5,1016.5C 1473,1016.83 745.666,1016.5 18.5,1015.5C 18.8333,1015.5 19.1667,1015.5 19.5,1015.5C 746.334,1015.83 1473,1015.5 2199.5,1014.5C 2199.5,897.833 2199.5,781.167 2199.5,664.5 Z"/></g>
</svg>
